# xmcd
#
# Track frame offsets:
#	150
#	27300
#	50425
#	75912
#	98700
#	127862
#	160787
#	185337
#	203062
#	228125
#
# Disc length: 3384 seconds
#
# Revision: 4
# Processed by: cddbd v1.5.2PL0 Copyright (c) Steve Scherf et al.
# Submitted via: EZCDAudioConverter 8.0.2.1
#
DISCID=690d360a
DTITLE=Ngọc Sơn, Tài Linh - Nói Với Người Tình
DYEAR=1995
DGENRE=blues
TTITLE0=Ngọc Sơn - Hạ thương
TTITLE1=Tài Linh - Chiều hạ vàng
TTITLE2=Ngọc Sơn - Con đường kỷ niệm tình ta
TTITLE3=Tài Linh - Tình bọt nước
TTITLE4=Ngọc Sơn - Nói Với Người Tình
TTITLE5=Tài Linh - Đợi người trăm năm
TTITLE6=Ngọc Sơn - Ta ru đời ta
TTITLE7=Tài Linh - Hoàng tử trong mơ
TTITLE8=Ngọc Sơn - Hai cánh phượng buồn
TTITLE9=Tài Linh - Hãy quên nhau đi
EXTD=
EXTT0=
EXTT1=
EXTT2=
EXTT3=
EXTT4=
EXTT5=
EXTT6=
EXTT7=
EXTT8=
EXTT9=
PLAYORDER=
